<?xml version="1.0" encoding="UTF-8" standalone="no"?>
<svg width="100%" height="100%" viewBox="0 0 474 227" version="1.1" xml:space="preserve" style="fill-rule:evenodd;clip-rule:evenodd;stroke-miterlimit:10;" id="svg27" sodipodi:docname="logo_24.svg" inkscape:version="1.3 (0e150ed6c4, 2023-07-21)" xmlns:inkscape="http://www.inkscape.org/namespaces/inkscape" xmlns:sodipodi="http://sodipodi.sourceforge.net/DTD/sodipodi-0.dtd" xmlns="http://www.w3.org/2000/svg" xmlns:svg="http://www.w3.org/2000/svg"><defs id="defs27"/><sodipodi:namedview id="namedview27" pagecolor="#505050" bordercolor="#eeeeee" borderopacity="1" inkscape:showpageshadow="0" inkscape:pageopacity="0" inkscape:pagecheckerboard="0" inkscape:deskcolor="#505050" inkscape:zoom="3.5379747" inkscape:cx="237.14132" inkscape:cy="113.48301" inkscape:window-width="2560" inkscape:window-height="1377" inkscape:window-x="1912" inkscape:window-y="-8" inkscape:window-maximized="1" inkscape:current-layer="svg27"/>
    <g id="g1">
        <path d="M130.988,38.868L130.988,73.175" style="fill:none;fill-rule:nonzero;stroke:black;stroke-width:5px;" id="path1"/>
        <circle cx="130.989" cy="38.868" r="6.913" id="circle1"/>
    </g>
    <g id="g2">
        <path d="M198.11,38.868L198.11,70.627" style="fill:none;fill-rule:nonzero;stroke:black;stroke-width:5px;" id="path2"/>
        <circle cx="198.11" cy="33.777" r="6.913" style="fill:none;stroke:black;stroke-width:5px;" id="circle2"/>
    </g>
    <g id="g6">
        <path d="M304.304,103.259C304.304,105.359 302.484,107.11 300.384,107.11L298.633,107.11L298.633,126.642C300.804,126.642 302.484,128.392 302.484,130.562C302.484,132.733 300.804,134.413 298.633,134.413C294.362,134.413 290.862,130.913 290.862,126.642L290.862,107.11L288.831,107.11C286.661,107.11 284.981,105.36 284.981,103.259C284.981,101.089 286.661,99.409 288.831,99.409L290.862,99.409L290.862,89.257C290.862,87.087 292.612,85.406 294.782,85.406C296.952,85.406 298.633,87.087 298.633,89.257L298.633,99.408L300.384,99.408C302.484,99.409 304.304,101.088 304.304,103.259Z" style="fill-rule:nonzero;" id="path3"/>
        <path d="M311.302,116.91C311.372,107.389 318.792,99.409 328.384,99.409C337.484,99.409 344.695,106.2 345.255,115.65L345.255,116C345.255,116.14 345.255,116.49 345.185,116.63C344.976,118.31 343.505,119.43 341.544,119.43L319.282,119.43C319.632,121.04 320.401,122.86 321.663,124.051C323.132,125.731 325.933,126.991 328.384,127.201C330.904,127.411 333.913,126.781 335.663,125.451C337.134,123.911 340.005,124.121 340.915,125.241C341.825,126.221 342.524,128.321 340.915,129.791C337.483,132.941 333.353,134.412 328.384,134.412C318.792,134.342 311.373,126.431 311.302,116.91ZM318.933,113.48L338.744,113.48C338.045,110.68 334.474,106.549 328.385,106.059C322.433,106.339 319.492,110.61 318.933,113.48Z" style="fill-rule:nonzero;" id="path4"/>
        <path d="M353.931,116.98C353.931,107.249 362.052,99.478 371.714,99.408C375.913,99.408 379.833,100.948 382.845,103.258C384.454,104.518 384.734,106.899 383.615,108.439C382.215,110.119 379.974,110.399 378.365,109.139C376.545,107.808 374.304,106.899 371.715,106.899C366.043,106.899 361.354,111.589 361.354,116.98C361.354,122.37 366.043,126.991 371.715,126.991C374.235,126.991 376.545,126.081 378.365,124.751C379.904,123.561 382.215,123.841 383.615,125.521C384.734,127.062 384.455,129.302 382.845,130.701C379.833,132.872 375.913,134.412 371.714,134.412C362.052,134.412 353.931,126.571 353.931,116.98Z" style="fill-rule:nonzero;" id="path5"/>
        <path d="M404.123,130.562C404.123,132.733 402.373,134.413 400.203,134.413C398.453,134.413 396.982,133.153 396.492,131.543C396.422,131.263 396.351,130.913 396.351,130.563L396.351,89.257C396.351,87.087 398.101,85.406 400.203,85.406C402.373,85.406 404.123,87.087 404.123,89.257L404.123,101.438C406.363,100.248 408.883,99.408 411.613,99.408C420.084,99.408 426.875,106.339 426.875,114.74L426.875,130.561C426.875,132.732 425.195,134.412 423.025,134.412C420.855,134.412 419.173,132.732 419.173,130.561L419.173,114.74C419.173,110.61 415.814,107.249 411.612,107.179C407.481,107.249 404.192,110.61 404.122,114.74L404.122,130.562L404.123,130.562Z" style="fill-rule:nonzero;" id="path6"/>
    </g>
    <g id="g7">
        <path d="M150.882,56.93L130.988,56.93" style="fill:none;fill-rule:nonzero;stroke:black;stroke-width:5px;" id="path7"/>
        <circle cx="150.883" cy="56.93" r="6.913" id="circle7"/>
    </g>
    <g id="g8">
        <path d="M70.459,90.699L87.612,90.699" style="fill:none;fill-rule:nonzero;stroke:black;stroke-width:5px;" id="path8"/>
        <circle cx="70.458" cy="90.699" r="6.913" id="circle8"/>
    </g>
    <path d="M70.459,61.3L70.459,88.959" style="fill:none;fill-rule:nonzero;stroke:black;stroke-width:5px;" id="path9"/>
    <circle cx="70.458" cy="54.387" r="6.913" style="fill:none;stroke:black;stroke-width:5px;" id="circle9"/>
    <path d="M70.458,92.8L70.458,120.459" style="fill:none;fill-rule:nonzero;stroke:black;stroke-width:5px;" id="path10"/>
    <g id="g11">
        <path d="M57.608,120.459L86.791,120.459" style="fill:none;fill-rule:nonzero;stroke:black;stroke-width:5px;" id="path11"/>
        <circle cx="50.695" cy="120.459" r="6.913" style="fill:none;stroke:black;stroke-width:5px;" id="circle11"/>
    </g>
    <g id="g12">
        <path d="M240.804,185.595L240.804,151.288" style="fill:none;fill-rule:nonzero;stroke:black;stroke-width:5px;" id="path12"/>
        <circle cx="240.803" cy="185.596" r="6.913" id="circle12"/>
    </g>
    <g id="g13">
        <path d="M260.697,169.198L240.803,169.198" style="fill:none;fill-rule:nonzero;stroke:black;stroke-width:5px;" id="path13"/>
        <circle cx="260.699" cy="169.199" r="6.913" id="circle13"/>
    </g>
    <g id="g14">
        <path d="M130.141,192.888L130.141,152.423" style="fill:none;fill-rule:nonzero;stroke:black;stroke-width:5px;" id="path14"/>
        <circle cx="130.141" cy="192.889" r="6.913" id="circle14"/>
    </g>
    <path d="M128.817,174.046L108.071,174.046" style="fill:none;fill-rule:nonzero;stroke:black;stroke-width:5px;" id="path15"/>
    <path d="M101.158,153.379L101.158,167.133" style="fill:none;fill-rule:nonzero;stroke:black;stroke-width:5px;" id="path16"/>
    <circle cx="101.158" cy="174.046" r="6.913" style="fill:none;stroke:black;stroke-width:5px;" id="circle16"/>
    <g id="g17">
        <path d="M165.958,175.237L165.958,152.423" style="fill:none;fill-rule:nonzero;stroke:black;stroke-width:5px;" id="path17"/>
        <circle cx="165.957" cy="182.14" r="6.913" style="fill:none;stroke:black;stroke-width:5px;" id="circle17"/>
    </g>
    <path d="M198.11,185.562L198.11,151.256" style="fill:none;fill-rule:nonzero;stroke:black;stroke-width:5px;" id="path18"/>
    <circle cx="198.111" cy="189.81" r="6.913" id="circle18"/>
    <g id="g19">
        <path d="M218.004,166.499L198.11,166.499" style="fill:none;fill-rule:nonzero;stroke:black;stroke-width:5px;" id="path19"/>
        <circle cx="218.005" cy="166.5" r="6.913" id="circle19"/>
    </g>
    <g id="g20">
        <path d="M255.988,38.868L255.988,73.175" style="fill:none;fill-rule:nonzero;stroke:black;stroke-width:5px;" id="path20"/>
        <circle cx="255.989" cy="38.868" r="6.913" id="circle20"/>
    </g>
    <path d="M238.284,56.021L255.988,56.021" style="fill:none;fill-rule:nonzero;stroke:black;stroke-width:5px;" id="path21"/>
    <path d="M198.11,56.021L224.458,56.021" style="fill:none;fill-rule:nonzero;stroke:black;stroke-width:5px;" id="path22"/>
    <circle cx="231.371" cy="56.021" r="6.913" style="fill:none;stroke:black;stroke-width:5px;" id="circle22"/>
    
    <path d="M259.865,68.719L97.002,68.719C90.375,68.719 85.002,74.091 85.002,80.719L85.002,142.85C85.002,149.478 90.375,154.85 97.002,154.85L259.864,154.85C266.491,154.85 271.864,149.478 271.864,142.85L271.864,80.719C271.865,74.091 266.492,68.719 259.865,68.719ZM133.383,130.561C133.383,132.731 131.633,134.412 129.463,134.412C127.293,134.412 125.613,132.731 125.613,130.561L125.613,113.759L107.481,113.759L107.481,130.561C107.481,132.731 105.731,134.412 103.561,134.412C101.391,134.412 99.71,132.731 99.71,130.561L99.71,89.256C99.71,87.086 101.39,85.405 103.561,85.405C105.731,85.405 107.481,87.086 107.481,89.256L107.481,106.058L125.613,106.058L125.613,89.256C125.613,87.086 127.293,85.405 129.463,85.405C131.633,85.405 133.383,87.086 133.383,89.256L133.383,130.561ZM156.201,130.631C156.201,132.731 154.591,134.411 152.42,134.411C150.32,134.411 148.64,132.73 148.64,130.631L148.64,103.328C148.64,101.088 150.32,99.478 152.42,99.478C154.59,99.478 156.201,101.088 156.201,103.328L156.201,130.631ZM156.201,90.657C156.201,92.757 154.591,94.507 152.42,94.507C150.32,94.507 148.64,92.757 148.64,90.657L148.64,89.187C148.64,87.087 150.32,85.406 152.42,85.406C154.59,85.406 156.201,87.087 156.201,89.187L156.201,90.657ZM210.244,125.66C210.244,126.15 210.104,126.43 210.034,126.85C209.964,126.99 209.964,127.06 209.894,127.2L209.894,127.27C209.684,127.9 209.264,128.46 208.564,128.951C204.153,132.381 198.623,134.411 192.672,134.411C178.461,134.411 166.839,123.28 166.839,109.278C166.839,95.207 178.461,84.006 192.672,84.006C198.623,84.006 204.293,86.036 208.633,89.466C210.453,90.796 210.733,93.386 209.403,95.137C208.073,96.817 205.483,97.167 203.733,95.767C200.723,93.457 196.872,91.987 192.672,91.987C187.631,91.987 183.221,93.877 180.07,97.097C176.78,100.247 174.82,104.518 174.82,109.278C174.82,113.899 176.78,118.169 180.07,121.32C183.22,124.54 187.631,126.43 192.672,126.43C196.172,126.43 199.463,125.38 202.263,123.77L202.263,114.179L192.252,114.179C190.082,114.179 188.261,112.359 188.261,110.188C188.261,107.948 190.081,106.268 192.252,106.268L206.183,106.268C208.423,106.268 210.244,107.948 210.244,110.188L210.244,125.66ZM256.512,130.561C256.512,132.731 254.762,134.412 252.591,134.412C250.421,134.412 248.741,132.731 248.741,130.561L248.741,113.759L230.61,113.759L230.61,130.561C230.61,132.731 228.86,134.412 226.69,134.412C224.52,134.412 222.839,132.731 222.839,130.561L222.839,89.256C222.839,87.086 224.519,85.405 226.69,85.405C228.86,85.405 230.61,87.086 230.61,89.256L230.61,106.058L248.742,106.058L248.742,89.256C248.742,87.086 250.422,85.405 252.592,85.405C254.763,85.405 256.513,87.086 256.513,89.256L256.513,130.561L256.512,130.561Z" style="fill-rule:nonzero;" id="path27"/>
<path style="font-size:33.3333px;line-height:1.25;font-family:Quicksand;-inkscape-font-specification:'Quicksand, Normal';letter-spacing:0px;word-spacing:0px" d="m 302.85261,161.64883 h -7.1 l 6.3,-5.7 c 1.73333,-1.56667 2.63333,-3.76666 2.63333,-5.93333 0,-1.9 -0.66667,-3.86667 -2.06667,-5.36667 -1.56666,-1.73333 -3.76666,-2.63333 -5.93333,-2.63333 -1.9,0 -3.86667,0.66667 -5.36667,2.06667 l -1.03333,0.93333 c -0.76667,0.7 -0.8,1.83333 -0.13333,2.6 0.7,0.76667 1.83333,0.83333 2.6,0.13333 l 1.03333,-0.93333 c 0.83333,-0.73333 1.86667,-1.1 2.9,-1.1 1.16667,0 2.33333,0.43333 3.2,1.4 0.73333,0.83333 1.1,1.83333 1.1,2.9 0,1.2 -0.43333,2.33333 -1.4,3.2 l -9.86667,8.93333 c -0.73333,0.7 -0.8,1.83333 -0.1,2.6 0.33334,0.4 0.86667,0.6 1.36667,0.6 0,0 0.0333,0 0.0333,0 0.0333,0 0.0333,0 0.0333,0 h 11.8 c 1.03333,0 1.83333,-0.8 1.83333,-1.83333 0,-1.03334 -0.8,-1.86667 -1.83333,-1.86667 z m 8.7,0 c 1.4,2.1 3.56667,3.7 6.2,3.7 2.56667,0 4.76667,-1.6 6.16667,-3.7 1.43333,-2.13333 2.23333,-4.93333 2.23333,-7.96667 0,-3.06666 -0.8,-5.83333 -2.23333,-7.96666 -1.4,-2.13333 -3.6,-3.7 -6.16667,-3.7 -2.63333,0 -4.8,1.56667 -6.2,3.7 -1.46667,2.13333 -2.23333,4.9 -2.26667,7.96666 0.0333,3.03334 0.8,5.83334 2.26667,7.96667 z m 9.3,-2.06667 c -0.96667,1.43334 -2.06667,2.06667 -3.1,2.06667 -1.03333,0 -2.16667,-0.63333 -3.16667,-2.06667 -0.93333,-1.4 -1.6,-3.53333 -1.6,-5.9 0,-2.39999 0.66667,-4.49999 1.6,-5.93333 1,-1.4 2.13334,-2.06666 3.16667,-2.03333 1.03333,-0.0333 2.13333,0.63333 3.1,2.03333 0.93333,1.43334 1.6,3.53334 1.6,5.93333 0,2.36667 -0.66667,4.5 -1.6,5.9 z m 24.99996,2.06667 h -7.1 l 6.3,-5.7 c 1.73333,-1.56667 2.63333,-3.76666 2.63333,-5.93333 0,-1.9 -0.66666,-3.86667 -2.06666,-5.36667 -1.56667,-1.73333 -3.76667,-2.63333 -5.93334,-2.63333 -1.9,0 -3.86666,0.66667 -5.36666,2.06667 l -1.03333,0.93333 c -0.76667,0.7 -0.8,1.83333 -0.13334,2.6 0.7,0.76667 1.83334,0.83333 2.6,0.13333 l 1.03333,-0.93333 c 0.83334,-0.73333 1.86667,-1.1 2.9,-1.1 1.16667,0 2.33334,0.43333 3.2,1.4 0.73334,0.83333 1.1,1.83333 1.1,2.9 0,1.2 -0.43333,2.33333 -1.4,3.2 l -9.86666,8.93333 c -0.73333,0.7 -0.8,1.83333 -0.1,2.6 0.33333,0.4 0.86667,0.6 1.36667,0.6 0,0 0.0333,0 0.0333,0 0.0333,0 0.0333,0 0.0333,0 h 11.8 c 1.03333,0 1.83333,-0.8 1.83333,-1.83333 0,-1.03334 -0.8,-1.86667 -1.83333,-1.86667 z m 21.39998,-4.33333 h -0.33333 v -13.46667 c 0,-0.0333 0,-0.0667 0,-0.1 0,-0.0667 -0.0333,-0.1 -0.0333,-0.16666 0,-0.1 0,-0.13334 -0.0333,-0.2 0,-0.0333 -0.0333,-0.1 -0.0333,-0.13334 -0.0333,-0.1 -0.0333,-0.13333 -0.0667,-0.2 -0.0333,-0.0333 -0.0667,-0.1 -0.0667,-0.13333 -0.0667,-0.1 -0.1,-0.13333 -0.13334,-0.16667 -0.0333,-0.0333 -0.0667,-0.1 -0.1,-0.13333 -0.0333,-0.0333 -0.0667,-0.0667 -0.13333,-0.13333 0,-0.0333 -0.0667,-0.0667 -0.1,-0.0667 0,-0.0333 -0.0333,-0.0333 -0.0333,-0.0333 -0.0667,-0.0333 -0.1,-0.0667 -0.16667,-0.1 -0.0333,-0.0333 -0.1,-0.0667 -0.16667,-0.13334 -0.0333,0 -0.1,-0.0333 -0.13333,-0.0333 -0.0667,-0.0333 -0.16667,-0.0333 -0.2,-0.0667 -0.0667,0 -0.1,0 -0.16667,-0.0333 -0.0333,0 -0.13333,0 -0.2,0 -0.0333,0 -0.0333,0 -0.0667,0 -0.0333,0 -0.0667,0 -0.0667,0 -0.0667,0 -0.16667,0 -0.23333,0 -0.0333,0.0333 -0.1,0.0333 -0.13334,0.0333 -0.1,0.0333 -0.16666,0.0333 -0.2,0.0667 -0.0667,0 -0.1,0.0333 -0.13333,0.1 -0.1,0 -0.13333,0.0333 -0.2,0.0667 -0.0333,0.0333 -0.1,0.0667 -0.13333,0.1 -0.0333,0.0333 -0.0667,0.0667 -0.16667,0.1 -0.0333,0.0667 -0.0667,0.1 -0.1,0.13333 -0.0333,0.0333 -0.0333,0.0667 -0.0667,0.0667 l -12.33333,15.33333 c -0.63333,0.8 -0.53333,1.93333 0.3,2.56666 0.33333,0.3 0.73333,0.4 1.13333,0.4 0,0 0.0333,0 0.0333,0 0,0 0.0333,0 0.0333,0 h 10.43333 v 2.53334 c 0,1.03333 0.8,1.83333 1.83334,1.83333 1.03333,0 1.83333,-0.8 1.83333,-1.83333 v -2.53334 h 0.33333 c 1.03334,0 1.86667,-0.8 1.86667,-1.83333 0,-1 -0.83333,-1.83333 -1.86667,-1.83333 z m -4,0 h -6.63333 l 6.63333,-8.23333 z" id="text27" aria-label="2024"/></svg>