<?xml version="1.0" encoding="UTF-8" standalone="no"?>
<svg
   width="24"
   height="24"
   viewBox="0 0 24 24"
   fill="none"
   stroke="currentColor"
   stroke-width="2"
   stroke-linecap="round"
   stroke-linejoin="round"
   class="feather feather-calendar"
   version="1.1"
   id="svg10"
   sodipodi:docname="calendar.svg"
   inkscape:version="1.1.2 (0a00cf5339, 2022-02-04)"
   xmlns:inkscape="http://www.inkscape.org/namespaces/inkscape"
   xmlns:sodipodi="http://sodipodi.sourceforge.net/DTD/sodipodi-0.dtd"
   xmlns="http://www.w3.org/2000/svg"
   xmlns:svg="http://www.w3.org/2000/svg">
  <defs
     id="defs14" />
  <sodipodi:namedview
     id="namedview12"
     pagecolor="#505050"
     bordercolor="#eeeeee"
     borderopacity="1"
     inkscape:showpageshadow="0"
     inkscape:pageopacity="0"
     inkscape:pagecheckerboard="0"
     inkscape:deskcolor="#505050"
     showgrid="false"
     inkscape:zoom="18.908646"
     inkscape:cx="11.106031"
     inkscape:cy="2.8558365"
     inkscape:window-width="2192"
     inkscape:window-height="1169"
     inkscape:window-x="0"
     inkscape:window-y="27"
     inkscape:window-maximized="1"
     inkscape:current-layer="svg10"
     inkscape:pageshadow="0" />
  <path
     style="color:#000000;fill:#ffffff;-inkscape-stroke:none;stroke:none"
     d="M 5,3 C 3.3552989,3 2,4.3552989 2,6 v 14 c 0,1.644701 1.3552989,3 3,3 h 14 c 1.644701,0 3,-1.355299 3,-3 V 6 C 22,4.3552989 20.644701,3 19,3 Z m 0,2 h 14 c 0.571297,0 1,0.4287033 1,1 v 14 c 0,0.571297 -0.428703,1 -1,1 H 5 C 4.4287033,21 4,20.571297 4,20 V 6 C 4,5.4287033 4.4287033,5 5,5 Z"
     id="rect2" />
  <path
     style="color:#000000;fill:#ffffff;-inkscape-stroke:none;stroke:none"
     d="m 16,1 a 1,1 0 0 0 -1,1 v 4 a 1,1 0 0 0 1,1 1,1 0 0 0 1,-1 V 2 A 1,1 0 0 0 16,1 Z"
     id="line4" />
  <path
     style="color:#000000;fill:#ffffff;-inkscape-stroke:none;stroke:none"
     d="M 8,1 A 1,1 0 0 0 7,2 V 6 A 1,1 0 0 0 8,7 1,1 0 0 0 9,6 V 2 A 1,1 0 0 0 8,1 Z"
     id="line6" />
  <path
     style="color:#000000;fill:#ffffff;-inkscape-stroke:none;stroke:none"
     d="m 3,9 a 1,1 0 0 0 -1,1 1,1 0 0 0 1,1 h 18 a 1,1 0 0 0 1,-1 1,1 0 0 0 -1,-1 z"
     id="line8" />
</svg>
